<?xml version="1.0" encoding="UTF-8" standalone="no"?>
<!DOCTYPE svg PUBLIC "-//W3C//DTD SVG 1.1//EN" "http://www.w3.org/Graphics/SVG/1.1/DTD/svg11.dtd">
<svg width="100%" height="100%" viewBox="0 0 600 600" version="1.1" xmlns="http://www.w3.org/2000/svg" xmlns:xlink="http://www.w3.org/1999/xlink" xml:space="preserve" xmlns:serif="http://www.serif.com/" style="fill-rule:evenodd;clip-rule:evenodd;stroke-linecap:round;stroke-linejoin:round;stroke-miterlimit:1.5;">
    <rect id="Artboard1" x="0" y="0" width="600" height="600" style="fill:none;"/>
    <g id="Artboard11" serif:id="Artboard1">
        <g transform="matrix(0.982041,0,0,0.982041,3.914609,2.932568)">
            <path d="M599,123.9L599,481.1C599,546.723 545.723,600 480.1,600L122.9,600C57.277,600 4,546.723 4,481.1L4,123.9C4,58.277 57.277,5 122.9,5L480.1,5C545.723,5 599,58.277 599,123.9Z" style="fill:rgb(20,18,26);stroke:rgb(179,154,255);stroke-width:1.02px;"/>
        </g>
        <g transform="matrix(0.052244,-1.361663,1.361663,0.052244,-185.148118,807.079877)">
            <circle cx="385.5" cy="341.5" r="204.5" style="fill:url(#_Radial1);"/>
        </g>
        <g transform="matrix(-1.050547,-0.17823,0.17823,-1.050547,644.120128,727.469406)">
            <circle cx="385.5" cy="341.5" r="204.5" style="fill:url(#_Radial2);"/>
        </g>
        <g transform="matrix(0.685213,0,0,0.685213,35.850543,65.999897)">
            <circle cx="385.5" cy="341.5" r="204.5" style="fill:url(#_Radial3);stroke:rgb(179,154,255);stroke-width:13.13px;"/>
        </g>
    </g>
    <defs>
        <radialGradient id="_Radial1" cx="0" cy="0" r="1" gradientUnits="userSpaceOnUse" gradientTransform="matrix(409,0,0,409,181,341.5)"><stop offset="0" style="stop-color:rgb(203,186,255);stop-opacity:0.1"/><stop offset="0.66" style="stop-color:rgb(200,181,255);stop-opacity:0.13"/><stop offset="1" style="stop-color:rgb(179,154,255);stop-opacity:0.29"/></radialGradient>
        <radialGradient id="_Radial2" cx="0" cy="0" r="1" gradientUnits="userSpaceOnUse" gradientTransform="matrix(409,0,0,409,181,341.5)"><stop offset="0" style="stop-color:rgb(203,186,255);stop-opacity:0.29"/><stop offset="0.53" style="stop-color:rgb(197,179,255);stop-opacity:0.29"/><stop offset="1" style="stop-color:rgb(179,154,255);stop-opacity:0.29"/></radialGradient>
        <radialGradient id="_Radial3" cx="0" cy="0" r="1" gradientUnits="userSpaceOnUse" gradientTransform="matrix(409,0,0,409,181,341.5)"><stop offset="0" style="stop-color:rgb(203,186,255);stop-opacity:0.6"/><stop offset="0.56" style="stop-color:rgb(186,164,255);stop-opacity:0.6"/><stop offset="1" style="stop-color:rgb(179,154,255);stop-opacity:0.6"/></radialGradient>
    </defs>
</svg>
